# xmcd
#
# Track frame offsets:
#	150
#	13897
#	30885
#	51112
#	73182
#	88137
#	107597
#	123087
#	136515
#	158162
#	170445
#	181120
#	198655
#	211520
#
# Disc length: 2970 seconds
#
# Revision: 0
# Processed by: cddbd v1.5.2PL0 Copyright (c) Steve Scherf et al.
# Submitted via: EasyCDDAExtractor 11.1.0.1
#
DISCID=ae0b980e
DTITLE=Paul Mateki - Texasville
DYEAR=2001
DGENRE=country
TTITLE0=Texas shuffle
TTITLE1=Mighty fine dog
TTITLE2=in the arms of
TTITLE3=Montana cowboy
TTITLE4=There go my heart strings again
TTITLE5=Texasville
TTITLE6=Practice for tomorrow
TTITLE7=Something in the air
TTITLE8=Don't love mean forever anymore
TTITLE9=The right thing
TTITLE10=Come back Texas
TTITLE11=Time is short
TTITLE12=Listen to your heart
TTITLE13=Texas tall
EXTD=
EXTT0=
EXTT1=
EXTT2=
EXTT3=
EXTT4=
EXTT5=
EXTT6=
EXTT7=
EXTT8=
EXTT9=
EXTT10=
EXTT11=
EXTT12=
EXTT13=
PLAYORDER=
